<?xml version="1.0" encoding="UTF-8"?>
<svg width="512px" height="512px" viewBox="0 0 512 512" version="1.1" xmlns="http://www.w3.org/2000/svg" xmlns:xlink="http://www.w3.org/1999/xlink">
    <title>Icon_Transparent</title>
    <g id="Icon_Transparent" stroke="none" stroke-width="1" fill="none" fill-rule="evenodd">
        <g id="Logomark" transform="translate(149.000000, 85.330411)" fill="#2196F3" fill-rule="nonzero">
            <path d="M204.441367,1.71137506 C212.89502,-3.11928416 223.462643,2.83790709 223.67315,12.5538992 L223.676346,12.8494665 L223.676346,138.42216 C223.676346,142.920135 221.321229,147.074283 217.496533,149.390817 L217.20694,149.561088 L165.813984,178.917 L165.707019,290.47976 L165.536352,290.47976 C165.121876,294.512613 162.833138,298.152898 159.313549,300.289806 L158.999819,300.474427 L108.601952,329.21896 C105.31274,331.095259 101.28532,331.152116 97.9513682,329.385642 L97.6408855,329.214693 L6.59491218,277.182693 C2.60539091,274.902312 0.113344591,270.727217 0.00375411988,266.179558 L0,265.84616 L0.0259985866,252.145619 L0.0145855102,251.825004 L0.0145855102,251.825004 L0.010758684,251.501627 L0.010758684,125.927227 C0.010758684,121.427739 2.36805407,117.274931 6.1915786,114.958528 L6.4810782,114.788264 L204.441367,1.71137506 Z M92.247984,220.939 L22.178984,260.964 L92.1646188,300.958693 L92.247984,220.939 Z M143.842984,191.467 L114.213984,208.392 L114.125152,300.95656 L143.644086,284.120293 L143.644086,213.44296 L143.819019,213.44296 L143.842984,191.467 Z M92.385984,90.261 L21.322984,130.853589 L21.322984,177.312 L21.780984,236.646 L92.273984,196.379 L92.385984,90.261 Z M143.984984,60.788 L114.338984,77.722 L114.236984,183.833 L143.869984,166.907 L143.984984,60.788 Z M202.363,27.442589 L165.937984,48.248 L165.836984,154.358 L202.363,133.494589 L202.363,27.442589 Z" id="Shape"></path>
        </g>
    </g>
</svg>