<svg xmlns="http://www.w3.org/2000/svg" xmlns:xlink="http://www.w3.org/1999/xlink" id="visual" viewBox="0 0 960 540" width="100%" height="100%" version="1.1" preserveAspectRatio="xMidYMid slice"><rect x="0" y="0" width="960" height="540" fill="#001220"/><defs><linearGradient id="grad1_0" x1="43.8%" y1="0%" x2="100%" y2="100%"><stop offset="14.444444444444446%" stop-color="#0367de" stop-opacity="1"/><stop offset="85.55555555555554%" stop-color="#0367de" stop-opacity="1"/></linearGradient></defs><defs><linearGradient id="grad1_1" x1="43.8%" y1="0%" x2="100%" y2="100%"><stop offset="14.444444444444446%" stop-color="#0367de" stop-opacity="1"/><stop offset="85.55555555555554%" stop-color="#0053ac" stop-opacity="1"/></linearGradient></defs><defs><linearGradient id="grad1_2" x1="43.8%" y1="0%" x2="100%" y2="100%"><stop offset="14.444444444444446%" stop-color="#003e7a" stop-opacity="1"/><stop offset="85.55555555555554%" stop-color="#0053ac" stop-opacity="1"/></linearGradient></defs><defs><linearGradient id="grad1_3" x1="43.8%" y1="0%" x2="100%" y2="100%"><stop offset="14.444444444444446%" stop-color="#003e7a" stop-opacity="1"/><stop offset="85.55555555555554%" stop-color="#00284b" stop-opacity="1"/></linearGradient></defs><defs><linearGradient id="grad1_4" x1="43.8%" y1="0%" x2="100%" y2="100%"><stop offset="14.444444444444446%" stop-color="#001220" stop-opacity="1"/><stop offset="85.55555555555554%" stop-color="#00284b" stop-opacity="1"/></linearGradient></defs><defs><linearGradient id="grad2_0" x1="0%" y1="0%" x2="56.3%" y2="100%"><stop offset="14.444444444444446%" stop-color="#0367de" stop-opacity="1"/><stop offset="85.55555555555554%" stop-color="#0367de" stop-opacity="1"/></linearGradient></defs><defs><linearGradient id="grad2_1" x1="0%" y1="0%" x2="56.3%" y2="100%"><stop offset="14.444444444444446%" stop-color="#0053ac" stop-opacity="1"/><stop offset="85.55555555555554%" stop-color="#0367de" stop-opacity="1"/></linearGradient></defs><defs><linearGradient id="grad2_2" x1="0%" y1="0%" x2="56.3%" y2="100%"><stop offset="14.444444444444446%" stop-color="#0053ac" stop-opacity="1"/><stop offset="85.55555555555554%" stop-color="#003e7a" stop-opacity="1"/></linearGradient></defs><defs><linearGradient id="grad2_3" x1="0%" y1="0%" x2="56.3%" y2="100%"><stop offset="14.444444444444446%" stop-color="#00284b" stop-opacity="1"/><stop offset="85.55555555555554%" stop-color="#003e7a" stop-opacity="1"/></linearGradient></defs><defs><linearGradient id="grad2_4" x1="0%" y1="0%" x2="56.3%" y2="100%"><stop offset="14.444444444444446%" stop-color="#00284b" stop-opacity="1"/><stop offset="85.55555555555554%" stop-color="#001220" stop-opacity="1"/></linearGradient></defs><g transform="translate(960, 0)"><path d="M0 479C-70 480.7 -140 482.4 -186 449C-232 415.6 -253.9 347.1 -301.2 301.2C-348.5 255.3 -421.2 232 -448.1 185.6C-474.9 139.2 -456 69.6 -437 0L0 0Z" fill="#001d35"/><path d="M0 383.2C-56 384.6 -112 385.9 -148.8 359.2C-185.6 332.5 -203.1 277.7 -241 241C-278.8 204.3 -337 185.6 -358.5 148.5C-380 111.3 -364.8 55.7 -349.6 0L0 0Z" fill="#003362"/><path d="M0 287.4C-42 288.4 -84 289.4 -111.6 269.4C-139.2 249.4 -152.3 208.3 -180.7 180.7C-209.1 153.2 -252.7 139.2 -268.8 111.4C-285 83.5 -273.6 41.7 -262.2 0L0 0Z" fill="#004993"/><path d="M0 191.6C-28 192.3 -56 193 -74.4 179.6C-92.8 166.2 -101.6 138.8 -120.5 120.5C-139.4 102.1 -168.5 92.8 -179.2 74.2C-190 55.7 -182.4 27.8 -174.8 0L0 0Z" fill="#005dc5"/><path d="M0 95.8C-14 96.1 -28 96.5 -37.2 89.8C-46.4 83.1 -50.8 69.4 -60.2 60.2C-69.7 51.1 -84.2 46.4 -89.6 37.1C-95 27.8 -91.2 13.9 -87.4 0L0 0Z" fill="#0367de"/></g><g transform="translate(0, 540)"><path d="M0 -454C58.5 -449.8 117 -445.7 178.3 -430.5C239.7 -415.4 303.8 -389.3 343.7 -343.7C383.5 -298 398.9 -232.7 415.7 -172.2C432.6 -111.7 450.8 -55.8 469 0L0 0Z" fill="#001d35"/><path d="M0 -363.2C46.8 -359.9 93.6 -356.5 142.7 -344.4C191.7 -332.3 243.1 -311.5 274.9 -274.9C306.8 -238.4 319.1 -186.2 332.6 -137.8C346.1 -89.3 360.6 -44.7 375.2 0L0 0Z" fill="#003362"/><path d="M0 -272.4C35.1 -269.9 70.2 -267.4 107 -258.3C143.8 -249.2 182.3 -233.6 206.2 -206.2C230.1 -178.8 239.3 -139.6 249.4 -103.3C259.5 -67 270.5 -33.5 281.4 0L0 0Z" fill="#004993"/><path d="M0 -181.6C23.4 -179.9 46.8 -178.3 71.3 -172.2C95.9 -166.2 121.5 -155.7 137.5 -137.5C153.4 -119.2 159.6 -93.1 166.3 -68.9C173 -44.7 180.3 -22.3 187.6 0L0 0Z" fill="#005dc5"/><path d="M0 -90.8C11.7 -90 23.4 -89.1 35.7 -86.1C47.9 -83.1 60.8 -77.9 68.7 -68.7C76.7 -59.6 79.8 -46.5 83.1 -34.4C86.5 -22.3 90.2 -11.2 93.8 0L0 0Z" fill="#0367de"/></g></svg>